# xmcd
# 
# Track frame offsets:
#     150
#     7980
#     17293
#     29865
#     36453
#     43716
#     56586
#     66456
#     77980
#     87934
#     98258
#     107720
#     119813
#     132329
#     143100
#     155026
#     176129
#     300651
#     310059
# 
# Disc length: 4260
# 
# Revision: 3
# Processed by: cddbd v1.5.2PL0 Copyright (c) Steve Scherf et al.
# Submitted via: BonkEnc v1.0.15
# 
DISCID=0710a213
DTITLE=Gene Vincent - Rebel Heart Vol. 6
DYEAR=1999
DGENRE=
TTITLE0=Gene Vincent - Good Golly Miss Molly
TTITLE1=Gene Vincent - Lonesome Whisle
TTITLE2=Gene Vincent and the Wild Angels - Be Bop A Lula
TTITLE3=Gene Vincent and the Wild Angels, Eamon Andews Show, 1969 - Interview
TTITLE4=Gene Vincent with the Emperor Rosko, 1969 - Baby Blue
TTITLE5=Gene Vincent with the Emperor Rosko, 1969 - Be Bop A Lula
TTITLE6=Gene Vincent with the Emperor Rosko, 1969 - Long Tall Sally
TTITLE7=Gene Vincent with the Wild Angels, 1969 - I Could Never Leave You
TTITLE8=Gene Vincent with the Wild Angels, 1969 - Alone In This World
TTITLE9=Gene Vincent with the Wild Angels, 1969 - Pain And Heartache
TTITLE10=Gene Vincent with the Wild Angels, 1969 - You're My Bright Day
TTITLE11=Gene Vincent with the Wild Angels, 1969 - Feelings Of You
TTITLE12=Johnny Meeks and the Detours, 1969 - Whole Lotta Shakin'
TTITLE13=Gene Vincent with the Houseshakers,1971 - Say Mama
TTITLE14=Gene Vincent with the Houseshakers,1971 - Rock Road Blues
TTITLE15=Gene Vincent with the Houseshakers,1971 - Baby Blue
TTITLE16=Gene Vincent with the Houseshakers,1971 and Johnny Moran, 1971 - The Last Interview
TTITLE17=Gene Vincent with David Simmonds, 1971 - Say Mama
TTITLE18=Melody Jean Vincent with Johnny Meeks, 1980 - Lotta Lovin'
EXTD=CDMF 101\nTKO Magnum Music. Made in the UK.
EXTT0=CDMF 101\nTKO Magnum Music
EXTT1=
EXTT2=
EXTT3=
EXTT4=
EXTT5=
EXTT6=
EXTT7=
EXTT8=
EXTT9=
EXTT10=
EXTT11=
EXTT12=
EXTT13=
EXTT14=
EXTT15=
EXTT16=
EXTT17=
EXTT18=
PLAYORDER=
